<?xml version="1.0" encoding="UTF-8" standalone="no"?>
<!-- Created with Inkscape (http://www.inkscape.org/) -->

<svg
   xmlns:dc="http://purl.org/dc/elements/1.1/"
   xmlns:cc="http://creativecommons.org/ns#"
   xmlns:rdf="http://www.w3.org/1999/02/22-rdf-syntax-ns#"
   xmlns:svg="http://www.w3.org/2000/svg"
   xmlns="http://www.w3.org/2000/svg"
   xmlns:sodipodi="http://sodipodi.sourceforge.net/DTD/sodipodi-0.dtd"
   xmlns:inkscape="http://www.inkscape.org/namespaces/inkscape"
   width="1186.9204"
   height="242.72134"
   viewBox="0 0 1186.9204 242.72135"
   id="svg4010"
   version="1.1"
   inkscape:version="0.91 r13725"
   sodipodi:docname="CMTitle.svg">
  <defs
     id="defs4012" />
  <sodipodi:namedview
     id="base"
     pagecolor="#ffffff"
     bordercolor="#666666"
     borderopacity="1.0"
     inkscape:pageopacity="0.0"
     inkscape:pageshadow="2"
     inkscape:zoom="0.35"
     inkscape:cx="268.02635"
     inkscape:cy="-112.40191"
     inkscape:document-units="px"
     inkscape:current-layer="layer1"
     showgrid="false"
     units="px"
     fit-margin-top="2"
     fit-margin-left="2"
     fit-margin-bottom="2"
     fit-margin-right="2"
     inkscape:window-width="1920"
     inkscape:window-height="1017"
     inkscape:window-x="-8"
     inkscape:window-y="-8"
     inkscape:window-maximized="1" />
  <metadata
     id="metadata4015">
    <rdf:RDF>
      <cc:Work
         rdf:about="">
        <dc:format>image/svg+xml</dc:format>
        <dc:type
           rdf:resource="http://purl.org/dc/dcmitype/StillImage" />
        <dc:title></dc:title>
      </cc:Work>
    </rdf:RDF>
  </metadata>
  <g
     inkscape:label="Layer 1"
     inkscape:groupmode="layer"
     id="layer1"
     transform="translate(245.88349,-177.23893)">
    <g
       id="g4660"
       transform="matrix(2.223787,0,0,-2.223787,-243.88349,242.53013)">
      <path
         d="m 0,0 c 0,3.441 0.646,6.865 1.935,10.282 1.289,3.411 3.172,6.462 5.644,9.147 2.473,2.689 5.481,4.863 9.028,6.535 3.548,1.665 7.58,2.497 12.097,2.497 5.371,0 10.034,-1.155 13.984,-3.467 3.954,-2.31 6.895,-5.324 8.83,-9.033 L 41.359,8.872 c -0.646,1.504 -1.465,2.752 -2.46,3.746 -0.995,0.994 -2.081,1.802 -3.264,2.418 -1.185,0.62 -2.393,1.049 -3.626,1.291 -1.238,0.243 -2.447,0.36 -3.628,0.36 -2.528,0 -4.731,-0.508 -6.611,-1.528 C 19.888,14.135 18.329,12.817 17.092,11.208 15.854,9.593 14.941,7.766 14.351,5.722 13.759,3.685 13.464,1.615 13.464,-0.484 c 0,-2.256 0.348,-4.431 1.049,-6.531 0.696,-2.094 1.704,-3.952 3.022,-5.561 1.315,-1.615 2.902,-2.889 4.757,-3.827 1.854,-0.945 3.938,-1.416 6.251,-1.416 1.18,0 2.403,0.149 3.665,0.447 1.262,0.292 2.473,0.752 3.628,1.366 1.155,0.622 2.219,1.424 3.185,2.424 0.965,0.995 1.746,2.218 2.338,3.666 l 10.804,-6.369 c -0.862,-2.093 -2.136,-3.976 -3.832,-5.641 -1.689,-1.672 -3.641,-3.063 -5.844,-4.194 -2.203,-1.131 -4.541,-1.988 -7.01,-2.577 -2.474,-0.591 -4.897,-0.89 -7.257,-0.89 -4.142,0 -7.941,0.846 -11.408,2.541 -3.466,1.691 -6.452,3.933 -8.953,6.729 -2.499,2.796 -4.432,5.964 -5.802,9.512 C 0.686,-7.258 0,-3.653 0,0"
         style="fill:#4d4c4e;fill-opacity:1;fill-rule:nonzero;stroke:none"
         id="path4662"
         inkscape:connector-curvature="0" />
    </g>
    <g
       id="g4664"
       transform="matrix(2.223787,0,0,-2.223787,-54.018997,258.48958)">
      <path
         d="M 0,0 -6.69,20.236 -13.545,0 0,0 Z m -12.659,35.315 11.931,0 20.884,-57.241 -13.545,0 -4.436,12.818 -17.816,0 -4.352,-12.818 -13.545,0 20.879,57.241 z"
         style="fill:#4d4c4e;fill-opacity:1;fill-rule:nonzero;stroke:none"
         id="path4666"
         inkscape:connector-curvature="0" />
    </g>
    <g
       id="g4668"
       transform="matrix(2.223787,0,0,-2.223787,30.960563,240.55608)">
      <path
         d="m 0,0 12.093,0 c 1.56,0 2.903,0.74 4.032,2.218 1.128,1.479 1.69,3.375 1.69,5.685 0,2.361 -0.643,4.243 -1.932,5.642 -1.292,1.397 -2.691,2.094 -4.194,2.094 L 0,15.639 0,0 Z m -13.223,-29.99 0,57.241 25.801,0 c 2.684,0 5.17,-0.565 7.455,-1.696 2.287,-1.125 4.26,-2.604 5.928,-4.43 1.666,-1.833 2.97,-3.902 3.908,-6.207 0.942,-2.317 1.41,-4.654 1.41,-7.015 0,-1.777 -0.215,-3.485 -0.643,-5.119 -0.431,-1.64 -1.047,-3.187 -1.855,-4.641 -0.806,-1.448 -1.789,-2.752 -2.943,-3.909 -1.157,-1.155 -2.459,-2.136 -3.908,-2.944 l 12.575,-21.28 -14.911,0 -10.967,18.459 -8.627,0 0,-18.459 -13.223,0 z"
         style="fill:#4d4c4e;fill-opacity:1;fill-rule:nonzero;stroke:none"
         id="path4670"
         inkscape:connector-curvature="0" />
    </g>
    <g
       id="g4672"
       transform="matrix(2.223787,0,0,-2.223787,209.35009,281.43751)">
      <path
         d="m 0,0 0,-11.606 -40.229,0 0,57.241 39.502,0 0,-11.613 -26.281,0 0,-11.122 22.572,0 0,-10.722 -22.572,0 L -27.008,0 0,0 Z"
         style="fill:#4d4c4e;fill-opacity:1;fill-rule:nonzero;stroke:none"
         id="path4674"
         inkscape:connector-curvature="0" />
    </g>
    <g
       id="g4676"
       transform="matrix(2.223787,0,0,-2.223787,314.95173,281.43751)">
      <path
         d="m 0,0 0,-11.606 -40.229,0 0,57.241 39.501,0 0,-11.613 -26.281,0 0,-11.122 22.572,0 0,-10.722 -22.572,0 L -27.009,0 0,0 Z"
         style="fill:#4d4c4e;fill-opacity:1;fill-rule:nonzero;stroke:none"
         id="path4678"
         inkscape:connector-curvature="0" />
    </g>
    <g
       id="g4680"
       transform="matrix(2.223787,0,0,-2.223787,360.48933,240.55608)">
      <path
         d="m 0,0 12.092,0 c 1.558,0 2.9,0.74 4.031,2.218 1.131,1.479 1.694,3.375 1.694,5.685 0,2.361 -0.643,4.243 -1.937,5.642 -1.288,1.397 -2.686,2.094 -4.192,2.094 L 0,15.639 0,0 Z m -13.221,-29.99 0,57.241 25.797,0 c 2.686,0 5.172,-0.565 7.454,-1.696 2.288,-1.125 4.264,-2.604 5.929,-4.43 1.664,-1.833 2.97,-3.902 3.91,-6.207 0.943,-2.317 1.411,-4.654 1.411,-7.015 0,-1.777 -0.214,-3.485 -0.643,-5.119 -0.436,-1.64 -1.05,-3.187 -1.858,-4.641 -0.804,-1.448 -1.786,-2.752 -2.941,-3.909 -1.156,-1.155 -2.457,-2.136 -3.912,-2.944 l 12.578,-21.28 -14.914,0 -10.966,18.459 -8.624,0 0,-18.459 -13.221,0 z"
         style="fill:#4d4c4e;fill-opacity:1;fill-rule:nonzero;stroke:none"
         id="path4682"
         inkscape:connector-curvature="0" />
    </g>
    <g
       id="g4684"
       transform="matrix(2.223787,0,0,-2.223787,589.78913,307.24789)">
      <path
         d="m 0,0 0,34.265 -12.414,-24.913 -7.095,0 -12.417,24.913 0,-34.265 -13.221,0 0,57.241 14.349,0 14.837,-29.909 14.914,29.909 14.269,0 L 13.222,0 0,0 Z"
         style="fill:#4d4c4e;fill-opacity:1;fill-rule:nonzero;stroke:none"
         id="path4686"
         inkscape:connector-curvature="0" />
    </g>
    <path
       d="m 641.78015,179.95499 29.40296,0 0,127.29179 -29.40296,0 0,-127.29179 z"
       style="fill:#4d4c4e;fill-opacity:1;fill-rule:nonzero;stroke:none"
       id="path4688"
       inkscape:connector-curvature="0" />
    <g
       id="g4690"
       transform="matrix(2.223787,0,0,-2.223787,723.17071,234.46223)">
      <path
         d="m 0,0 0,-32.73 -13.221,0 0,57.241 10.321,0 26.684,-33.618 0,33.618 13.222,0 0,-57.241 -10.639,0 L 0,0 Z"
         style="fill:#4d4c4e;fill-opacity:1;fill-rule:nonzero;stroke:none"
         id="path4692"
         inkscape:connector-curvature="0" />
    </g>
    <g
       id="g4694"
       transform="matrix(2.223787,0,0,-2.223787,909.09581,243.42698)">
      <path
         d="m 0,0 c 0,2.528 -0.339,4.827 -1.01,6.896 -0.671,2.069 -1.653,3.852 -2.941,5.361 -1.289,1.504 -2.873,2.66 -4.758,3.467 -1.881,0.802 -4.004,1.206 -6.368,1.206 l -8.144,0 0,-34.023 8.144,0 c 2.418,0 4.567,0.429 6.449,1.292 1.884,0.859 3.455,2.057 4.717,3.585 1.261,1.535 2.23,3.336 2.901,5.405 C -0.339,-4.741 0,-2.474 0,0 m -36.442,-28.699 0,57.241 21.365,0 c 4.729,0 8.867,-0.752 12.414,-2.256 3.549,-1.51 6.518,-3.547 8.91,-6.132 2.392,-2.579 4.194,-5.604 5.402,-9.065 C 12.857,7.622 13.464,3.927 13.464,0 c 0,-4.351 -0.675,-8.29 -2.017,-11.812 -1.343,-3.517 -3.264,-6.53 -5.765,-9.028 -2.497,-2.497 -5.511,-4.436 -9.028,-5.803 -3.522,-1.373 -7.431,-2.056 -11.731,-2.056 l -21.365,0 z"
         style="fill:#4d4c4e;fill-opacity:1;fill-rule:nonzero;stroke:none"
         id="path4696"
         inkscape:connector-curvature="0" />
    </g>
    <g
       id="g4698"
       transform="matrix(2.223787,0,0,-2.223787,18.975243,386.88508)">
      <path
         d="m 0,0 c 0,1.627 0.286,3.25 0.857,4.864 0.575,1.621 1.408,3.064 2.503,4.338 1.094,1.273 2.443,2.311 4.046,3.112 1.603,0.802 3.423,1.2 5.458,1.2 2.42,0 4.486,-0.548 6.203,-1.641 1.718,-1.094 2.983,-2.522 3.797,-4.274 L 20.767,6.3 c -0.432,0.888 -0.96,1.64 -1.585,2.249 -0.624,0.615 -1.291,1.112 -2.004,1.491 -0.714,0.379 -1.45,0.652 -2.214,0.819 -0.765,0.169 -1.514,0.249 -2.252,0.249 -1.628,0 -3.069,-0.329 -4.313,-0.993 C 7.15,9.455 6.101,8.586 5.25,7.518 4.395,6.449 3.753,5.25 3.32,3.914 2.89,2.578 2.671,1.224 2.671,-0.149 c 0,-1.503 0.262,-2.946 0.783,-4.318 0.523,-1.374 1.236,-2.592 2.138,-3.647 0.903,-1.057 1.971,-1.896 3.204,-2.516 1.237,-0.623 2.58,-0.938 4.031,-0.938 0.761,0 1.543,0.098 2.345,0.291 0.802,0.187 1.578,0.491 2.33,0.914 0.752,0.423 1.444,0.937 2.081,1.565 0.634,0.621 1.169,1.38 1.603,2.268 l 2.211,-1.143 c -0.431,-1.019 -1.043,-1.914 -1.829,-2.69 -0.789,-0.777 -1.669,-1.429 -2.634,-1.964 -0.966,-0.534 -1.992,-0.944 -3.073,-1.224 -1.081,-0.279 -2.143,-0.423 -3.186,-0.423 -1.859,0 -3.568,0.411 -5.116,1.225 -1.551,0.813 -2.888,1.876 -4.008,3.186 C 2.429,-8.251 1.559,-6.76 0.935,-5.095 0.31,-3.429 0,-1.733 0,0"
         style="fill:#4d4c4e;fill-opacity:1;fill-rule:nonzero;stroke:none"
         id="path4700"
         inkscape:connector-curvature="0" />
    </g>
    <g
       id="g4702"
       transform="matrix(2.223787,0,0,-2.223787,95.296293,387.31508)">
      <path
         d="m 0,0 c 0,-1.472 0.238,-2.895 0.721,-4.255 0.483,-1.361 1.175,-2.566 2.063,-3.622 0.891,-1.057 1.947,-1.901 3.168,-2.522 1.225,-0.622 2.585,-0.933 4.086,-0.933 1.525,0 2.913,0.329 4.16,0.987 1.247,0.665 2.304,1.53 3.168,2.598 0.863,1.068 1.534,2.28 2.006,3.628 0.471,1.349 0.703,2.723 0.703,4.119 0,1.479 -0.247,2.896 -0.742,4.257 -0.495,1.36 -1.19,2.565 -2.079,3.609 -0.895,1.044 -1.952,1.876 -3.169,2.497 -1.225,0.628 -2.571,0.939 -4.047,0.939 -1.526,0 -2.914,-0.323 -4.16,-0.975 C 4.629,9.68 3.573,8.823 2.709,7.755 1.843,6.686 1.175,5.475 0.702,4.127 0.233,2.777 0,1.404 0,0 m 10.038,-13.736 c -1.887,0 -3.607,0.384 -5.173,1.162 -1.565,0.776 -2.907,1.807 -4.026,3.094 -1.121,1.28 -1.988,2.752 -2.598,4.404 -0.608,1.653 -0.916,3.349 -0.916,5.076 0,1.809 0.326,3.542 0.972,5.194 0.653,1.654 1.548,3.119 2.691,4.394 1.15,1.266 2.497,2.279 4.051,3.031 1.55,0.752 3.231,1.125 5.038,1.125 1.884,0 3.604,-0.398 5.17,-1.199 1.565,-0.801 2.901,-1.852 4.007,-3.149 1.109,-1.3 1.97,-2.772 2.578,-4.413 0.61,-1.64 0.918,-3.311 0.918,-5.019 0,-1.808 -0.327,-3.536 -0.974,-5.189 -0.652,-1.659 -1.54,-3.112 -2.671,-4.374 -1.133,-1.26 -2.479,-2.261 -4.029,-3.013 -1.554,-0.752 -3.233,-1.124 -5.038,-1.124"
         style="fill:#4d4c4e;fill-opacity:1;fill-rule:nonzero;stroke:none"
         id="path4704"
         inkscape:connector-curvature="0" />
    </g>
    <g
       id="g4706"
       transform="matrix(2.223787,0,0,-2.223787,175.76512,368.20656)">
      <path
         d="m 0,0 0,-22.143 -2.673,0 0,27.102 2.06,0 17.941,-22.56 0,22.522 2.671,0 0,-27.064 -2.326,0 L 0,0 Z"
         style="fill:#4d4c4e;fill-opacity:1;fill-rule:nonzero;stroke:none"
         id="path4708"
         inkscape:connector-curvature="0" />
    </g>
    <g
       id="g4710"
       transform="matrix(2.223787,0,0,-2.223787,283.31035,368.46719)">
      <path
         d="m 0,0 c -0.761,0.869 -1.78,1.565 -3.051,2.101 -1.272,0.533 -2.722,0.8 -4.35,0.8 -2.397,0 -4.136,-0.447 -5.23,-1.354 -1.097,-0.901 -1.643,-2.132 -1.643,-3.685 0,-0.814 0.146,-1.478 0.438,-2 0.292,-0.522 0.746,-0.975 1.355,-1.355 0.611,-0.385 1.395,-0.715 2.348,-0.993 0.956,-0.281 2.081,-0.56 3.379,-0.84 1.448,-0.304 2.753,-0.653 3.912,-1.03 1.158,-0.385 2.144,-0.858 2.96,-1.436 0.815,-0.571 1.436,-1.261 1.871,-2.075 0.432,-0.821 0.647,-1.833 0.647,-3.058 0,-1.248 -0.242,-2.33 -0.725,-3.243 -0.481,-0.92 -1.159,-1.683 -2.021,-2.292 -0.868,-0.609 -1.896,-1.062 -3.095,-1.354 -1.193,-0.291 -2.504,-0.442 -3.931,-0.442 -4.199,0 -7.824,1.312 -10.882,3.933 l 1.34,2.176 c 0.481,-0.51 1.059,-0.989 1.737,-1.449 0.672,-0.46 1.422,-0.857 2.251,-1.206 0.827,-0.341 1.712,-0.608 2.653,-0.801 0.942,-0.185 1.935,-0.286 2.979,-0.286 2.162,0 3.846,0.392 5.058,1.168 1.204,0.777 1.811,1.951 1.811,3.531 0,0.837 -0.171,1.545 -0.512,2.117 -0.348,0.572 -0.861,1.069 -1.547,1.492 -0.69,0.416 -1.542,0.783 -2.56,1.087 -1.019,0.305 -2.199,0.609 -3.548,0.913 -1.43,0.33 -2.672,0.677 -3.741,1.031 -1.068,0.355 -1.975,0.802 -2.711,1.336 -0.74,0.535 -1.294,1.181 -1.662,1.927 -0.367,0.751 -0.553,1.677 -0.553,2.77 0,1.243 0.236,2.361 0.708,3.336 0.47,0.983 1.137,1.796 2.001,2.45 0.867,0.645 1.885,1.141 3.057,1.484 1.167,0.347 2.466,0.516 3.893,0.516 1.803,0 3.417,-0.274 4.83,-0.822 C -1.124,3.901 0.155,3.131 1.3,2.137 L 0,0 Z"
         style="fill:#4d4c4e;fill-opacity:1;fill-rule:nonzero;stroke:none"
         id="path4712"
         inkscape:connector-curvature="0" />
    </g>
    <g
       id="g4714"
       transform="matrix(2.223787,0,0,-2.223787,336.79643,412.51508)">
      <path
         d="m 0,0 c 1.705,0 3.124,0.323 4.256,0.969 1.13,0.653 2.037,1.504 2.709,2.559 0.676,1.058 1.148,2.257 1.416,3.612 0.267,1.347 0.396,2.708 0.396,4.081 l 0,13.663 2.673,0 0,-13.663 C 11.45,9.388 11.248,7.647 10.842,6.009 10.431,4.368 9.778,2.927 8.875,1.677 7.971,0.429 6.797,-0.565 5.342,-1.299 3.895,-2.038 2.125,-2.404 0.037,-2.404 c -2.138,0 -3.938,0.384 -5.399,1.162 -1.467,0.776 -2.642,1.801 -3.533,3.075 -0.891,1.268 -1.525,2.722 -1.91,4.35 -0.379,1.628 -0.572,3.305 -0.572,5.038 l 0,13.663 2.635,0 0,-13.663 c 0,-1.429 0.138,-2.815 0.423,-4.162 C -8.041,5.71 -7.565,4.517 -6.891,3.473 -6.217,2.43 -5.32,1.591 -4.201,0.95 -3.078,0.316 -1.679,0 0,0"
         style="fill:#4d4c4e;fill-opacity:1;fill-rule:nonzero;stroke:none"
         id="path4716"
         inkscape:connector-curvature="0" />
    </g>
    <g
       id="g4718"
       transform="matrix(2.223787,0,0,-2.223787,389.17262,417.44698)">
      <path
         d="m 0,0 0,27.102 2.672,0 0,-24.735 15.65,0 L 18.322,0 0,0 Z"
         style="fill:#4d4c4e;fill-opacity:1;fill-rule:nonzero;stroke:none"
         id="path4720"
         inkscape:connector-curvature="0" />
    </g>
    <g
       id="g4722"
       transform="matrix(2.223787,0,0,-2.223787,484.16146,362.42983)">
      <path
         d="m 0,0 -9.659,0 0,-24.74 -2.67,0 0,24.74 -9.659,0 0,2.361 L 0,2.361 0,0 Z"
         style="fill:#4d4c4e;fill-opacity:1;fill-rule:nonzero;stroke:none"
         id="path4724"
         inkscape:connector-curvature="0" />
    </g>
    <path
       d="m 505.89564,357.17969 5.93974,0 0,60.26909 -5.93974,0 0,-60.26909 z"
       style="fill:#4d4c4e;fill-opacity:1;fill-rule:nonzero;stroke:none"
       id="path4726"
       inkscape:connector-curvature="0" />
    <g
       id="g4728"
       transform="matrix(2.223787,0,0,-2.223787,545.61737,368.20656)">
      <path
         d="m 0,0 0,-22.143 -2.671,0 0,27.102 2.059,0 17.94,-22.56 0,22.522 2.671,0 0,-27.064 -2.326,0 L 0,0 Z"
         style="fill:#4d4c4e;fill-opacity:1;fill-rule:nonzero;stroke:none"
         id="path4730"
         inkscape:connector-curvature="0" />
    </g>
    <g
       id="g4732"
       transform="matrix(2.223787,0,0,-2.223787,661.49113,408.61918)">
      <path
         d="m 0,0 c -2.52,-2.771 -5.422,-4.156 -8.706,-4.156 -1.828,0 -3.519,0.39 -5.057,1.18 -1.538,0.788 -2.876,1.833 -4.007,3.131 -1.134,1.299 -2.016,2.765 -2.653,4.406 -0.638,1.646 -0.953,3.33 -0.953,5.063 0,1.802 0.31,3.535 0.932,5.189 0.627,1.651 1.496,3.112 2.616,4.374 1.121,1.253 2.444,2.26 3.969,3.012 1.529,0.752 3.193,1.125 5.001,1.125 1.323,0 2.532,-0.143 3.629,-0.434 1.093,-0.299 2.066,-0.703 2.92,-1.225 0.851,-0.522 1.59,-1.144 2.213,-1.87 0.623,-0.728 1.148,-1.522 1.584,-2.385 l -2.064,-1.375 c -0.887,1.679 -2.047,2.915 -3.473,3.703 -1.422,0.79 -3.038,1.181 -4.846,1.181 -1.503,0 -2.857,-0.315 -4.066,-0.95 -1.209,-0.64 -2.24,-1.485 -3.091,-2.541 -0.854,-1.056 -1.51,-2.268 -1.968,-3.629 -0.456,-1.361 -0.685,-2.765 -0.685,-4.219 0,-1.521 0.261,-2.976 0.783,-4.349 0.522,-1.373 1.239,-2.579 2.156,-3.609 0.916,-1.032 1.991,-1.851 3.225,-2.46 1.236,-0.609 2.578,-0.914 4.025,-0.914 1.553,0 3.038,0.36 4.45,1.087 C -2.653,0.057 -1.3,1.212 0,2.79 l 0,4.504 -6.031,0 0,2.062 8.282,0 0,-13.326 L 0,-3.97 0,0 Z"
         style="fill:#4d4c4e;fill-opacity:1;fill-rule:nonzero;stroke:none"
         id="path4734"
         inkscape:connector-curvature="0" />
    </g>
  </g>
</svg>
