<?xml version="1.0" encoding="UTF-8" standalone="no"?>
<!-- Created with Inkscape (http://www.inkscape.org/) -->

<svg
   xmlns:dc="http://purl.org/dc/elements/1.1/"
   xmlns:cc="http://creativecommons.org/ns#"
   xmlns:rdf="http://www.w3.org/1999/02/22-rdf-syntax-ns#"
   xmlns:svg="http://www.w3.org/2000/svg"
   xmlns="http://www.w3.org/2000/svg"
   xmlns:sodipodi="http://sodipodi.sourceforge.net/DTD/sodipodi-0.dtd"
   xmlns:inkscape="http://www.inkscape.org/namespaces/inkscape"
   width="512"
   height="512"
   viewBox="0 0 512 512.00001"
   id="svg3564"
   version="1.1"
   inkscape:version="0.91 r13725"
   inkscape:export-filename="C:\Users\Aaron\DEV\cm-site\img\favicon.png"
   inkscape:export-xdpi="90"
   inkscape:export-ydpi="90"
   sodipodi:docname="favicon.svg">
  <defs
     id="defs3566" />
  <sodipodi:namedview
     id="base"
     pagecolor="#ffffff"
     bordercolor="#666666"
     borderopacity="1.0"
     inkscape:pageopacity="0.0"
     inkscape:pageshadow="2"
     inkscape:zoom="0.88"
     inkscape:cx="-4.7878788"
     inkscape:cy="125.39421"
     inkscape:document-units="px"
     inkscape:current-layer="layer1"
     showgrid="false"
     units="px"
     inkscape:window-width="1920"
     inkscape:window-height="1017"
     inkscape:window-x="-8"
     inkscape:window-y="-8"
     inkscape:window-maximized="1" />
  <metadata
     id="metadata3569">
    <rdf:RDF>
      <cc:Work
         rdf:about="">
        <dc:format>image/svg+xml</dc:format>
        <dc:type
           rdf:resource="http://purl.org/dc/dcmitype/StillImage" />
        <dc:title></dc:title>
      </cc:Work>
    </rdf:RDF>
  </metadata>
  <g
     inkscape:label="Layer 1"
     inkscape:groupmode="layer"
     id="layer1"
     transform="translate(0,-540.36216)">
    <g
       id="g3624"
       transform="matrix(1.4189141,0,0,1.4189141,2287.0742,357.20106)">
      <g
         transform="matrix(1.25,0,0,-1.25,-1403.715,297.74563)"
         id="g3354">
        <path
           inkscape:connector-curvature="0"
           id="path3356"
           style="fill:#4d4c4e;fill-opacity:1;fill-rule:nonzero;stroke:none"
           d="m 0,0 -11.127,0 c -0.939,-3.411 -1.849,-6.732 -2.762,-10.034 -0.238,-0.873 -0.562,-1.73 -0.727,-2.622 -0.193,-1.056 -0.6,-1.456 -1.681,-1.438 -4.34,0.09 -8.679,0.047 -13.015,0.034 -0.584,-0.003 -1.02,0.006 -1.231,0.798 -1.186,4.43 -2.426,8.845 -3.641,13.262 l -11.223,0 -38.829,-40.344 31.363,-112.508 28.975,0 2.385,0 28.978,0 L 38.826,-40.344 0,0 Z" />
      </g>
      <g
         transform="matrix(1.25,0,0,-1.25,-1440.3556,315.32075)"
         id="g3358">
        <path
           inkscape:connector-curvature="0"
           id="path3360"
           style="fill:#ffffff;fill-opacity:1;fill-rule:nonzero;stroke:none"
           d="m 0,0 c 4.337,0.013 8.676,0.056 13.016,-0.034 1.081,-0.018 1.488,0.382 1.68,1.438 0.165,0.892 0.49,1.749 0.728,2.622 0.913,3.302 1.822,6.623 2.762,10.034 l -10.386,0 -2.386,0 -10.285,0 C -3.656,9.643 -2.417,5.229 -1.23,0.798 -1.02,0.006 -0.584,-0.003 0,0" />
      </g>
      <g
         transform="matrix(1.25,0,0,-1.25,-1383.3121,228.17475)"
         id="g3362">
        <path
           inkscape:connector-curvature="0"
           id="path3364"
           style="fill:#f89734;fill-opacity:1;fill-rule:nonzero;stroke:none"
           d="m 0,0 c 0,-21.187 -17.18,-38.362 -38.369,-38.362 -21.186,0 -38.361,17.175 -38.361,38.362 0,21.187 17.175,38.366 38.361,38.366 C -17.18,38.366 0,21.187 0,0" />
      </g>
      <g
         transform="matrix(1.25,0,0,-1.25,-1417.8373,277.33187)"
         id="g3366">
        <path
           inkscape:connector-curvature="0"
           id="path3368"
           style="fill:#f89734;fill-opacity:1;fill-rule:nonzero;stroke:none"
           d="m 0,0 c 0,-5.309 -3.442,-9.608 -7.686,-9.608 l -7.204,0 c -4.246,0 -7.686,4.299 -7.686,9.608 0,5.306 3.44,9.605 7.686,9.605 l 7.204,0 C -3.442,9.605 0,5.306 0,0" />
      </g>
      <g
         transform="matrix(1.25,0,0,-1.25,-1434.921,313.74425)"
         id="g3370">
        <path
           inkscape:connector-curvature="0"
           id="path3372"
           style="fill:#ffffff;fill-opacity:1;fill-rule:evenodd;stroke:none"
           d="m 0,0 4.621,0 c 0.49,-2.957 0.976,-5.887 1.462,-8.807 1.367,-8.185 2.737,-16.368 4.099,-24.547 1.23,-7.391 2.455,-14.775 3.656,-22.166 0.065,-0.373 0.041,-0.823 -0.121,-1.149 -3.694,-7.428 -7.41,-14.842 -11.125,-22.259 -0.062,-0.119 -0.145,-0.218 -0.293,-0.436 -0.228,0.398 -0.408,0.702 -0.567,1.013 -3.548,7.089 -7.105,14.173 -10.618,21.281 -0.256,0.516 -0.38,1.196 -0.293,1.758 1.181,7.319 2.402,14.635 3.62,21.948 1.367,8.22 2.733,16.44 4.107,24.657 C -0.971,-5.819 -0.489,-2.927 0,0" />
      </g>
      <g
         transform="matrix(1.25,0,0,-1.25,-1322.7848,238.613)"
         id="g3374">
        <path
           inkscape:connector-curvature="0"
           id="path3376"
           style="fill:#4d4c4e;fill-opacity:1;fill-rule:evenodd;stroke:none"
           d="m 0,0 c 0,-1.973 -1.604,-3.569 -3.576,-3.569 l -23.41,0 c -1.973,0 -3.574,1.596 -3.574,3.569 0,1.973 1.601,3.573 3.574,3.573 l 23.41,0 C -1.604,3.573 0,1.973 0,0" />
      </g>
      <g
         transform="matrix(1.25,0,0,-1.25,-1337.0987,184.76838)"
         id="g3378">
        <path
           inkscape:connector-curvature="0"
           id="path3380"
           style="fill:#4d4c4e;fill-opacity:1;fill-rule:evenodd;stroke:none"
           d="m 0,0 c 0.973,-1.719 0.36,-3.899 -1.357,-4.865 l -20.391,-11.507 c -1.715,-0.966 -3.897,-0.357 -4.865,1.358 -0.973,1.721 -0.362,3.898 1.356,4.868 l 20.393,11.5 C -3.146,2.323 -0.973,1.721 0,0" />
      </g>
      <g
         transform="matrix(1.25,0,0,-1.25,-1376.9363,144.61338)"
         id="g3382">
        <path
           inkscape:connector-curvature="0"
           id="path3384"
           style="fill:#4d4c4e;fill-opacity:1;fill-rule:evenodd;stroke:none"
           d="m 0,0 c 1.692,-1.01 2.249,-3.203 1.243,-4.896 l -11.972,-20.121 c -1.004,-1.695 -3.2,-2.252 -4.893,-1.245 -1.696,1.009 -2.257,3.2 -1.243,4.895 L -4.896,-1.243 C -3.886,0.451 -1.696,1.006 0,0" />
      </g>
      <g
         transform="matrix(1.25,0,0,-1.25,-1540.0723,238.613)"
         id="g3386">
        <path
           inkscape:connector-curvature="0"
           id="path3388"
           style="fill:#4d4c4e;fill-opacity:1;fill-rule:evenodd;stroke:none"
           d="m 0,0 c 0,-1.973 1.598,-3.569 3.569,-3.569 l 23.415,0 c 1.972,0 3.57,1.596 3.57,3.569 0,1.973 -1.598,3.573 -3.57,3.573 l -23.415,0 C 1.598,3.573 0,1.973 0,0" />
      </g>
      <g
         transform="matrix(1.25,0,0,-1.25,-1525.7621,184.76838)"
         id="g3390">
        <path
           inkscape:connector-curvature="0"
           id="path3392"
           style="fill:#4d4c4e;fill-opacity:1;fill-rule:evenodd;stroke:none"
           d="m 0,0 c -0.966,-1.719 -0.359,-3.899 1.358,-4.865 l 20.395,-11.507 c 1.718,-0.966 3.894,-0.357 4.863,1.358 0.967,1.721 0.363,3.898 -1.356,4.868 L 4.867,1.354 C 3.147,2.323 0.97,1.721 0,0" />
      </g>
      <g
         transform="matrix(1.25,0,0,-1.25,-1485.9207,144.61338)"
         id="g3394">
        <path
           inkscape:connector-curvature="0"
           id="path3396"
           style="fill:#4d4c4e;fill-opacity:1;fill-rule:evenodd;stroke:none"
           d="M 0,0 C -1.7,-1.01 -2.253,-3.203 -1.245,-4.896 L 10.73,-25.017 c 1.006,-1.695 3.197,-2.252 4.889,-1.245 1.699,1.009 2.253,3.2 1.249,4.895 L 4.893,-1.243 C 3.886,0.451 1.696,1.006 0,0" />
      </g>
      <g
         transform="matrix(1.25,0,0,-1.25,-1427.1304,164.227)"
         id="g3398">
        <path
           inkscape:connector-curvature="0"
           id="path3400"
           style="fill:#4d4c4e;fill-opacity:1;fill-rule:evenodd;stroke:none"
           d="m 0,0 c 0,-1.929 -1.562,-3.489 -3.488,-3.489 -1.932,0 -3.491,1.56 -3.491,3.489 l 0,23.734 c 0,1.923 1.559,3.488 3.491,3.488 C -1.562,27.222 0,25.657 0,23.734 L 0,0 Z" />
      </g>
    </g>
  </g>
</svg>
